<svg width="32" height="32" viewBox="0 0 32 32" fill="none" xmlns="http://www.w3.org/2000/svg">
  <rect width="32" height="32" rx="8" fill="url(#gradient1)"/>
  
  <!-- Chart bars -->
  <rect x="6" y="20" width="3" height="8" rx="1.5" fill="white" opacity="0.9"/>
  <rect x="11" y="16" width="3" height="12" rx="1.5" fill="white" opacity="0.9"/>
  <rect x="16" y="12" width="3" height="16" rx="1.5" fill="white" opacity="0.9"/>
  <rect x="21" y="18" width="3" height="10" rx="1.5" fill="white" opacity="0.9"/>
  
  <!-- Trend line -->
  <path d="M4 24 L10 20 L16 16 L22 12 L28 8" stroke="url(#gradient2)" stroke-width="2" stroke-linecap="round" fill="none"/>
  
  <!-- Dots on trend line -->
  <circle cx="10" cy="20" r="2" fill="#10B981"/>
  <circle cx="16" cy="16" r="2" fill="#10B981"/>
  <circle cx="22" cy="12" r="2" fill="#10B981"/>
  
  <!-- Sparkle effects -->
  <circle cx="26" cy="6" r="1" fill="white" opacity="0.8"/>
  <circle cx="28" cy="10" r="0.5" fill="white" opacity="0.6"/>
  <circle cx="24" cy="8" r="0.5" fill="white" opacity="0.6"/>
  
  <defs>
    <linearGradient id="gradient1" x1="0%" y1="0%" x2="100%" y2="100%">
      <stop offset="0%" style="stop-color:#8B5CF6;stop-opacity:1" />
      <stop offset="50%" style="stop-color:#A855F7;stop-opacity:1" />
      <stop offset="100%" style="stop-color:#7C3AED;stop-opacity:1" />
    </linearGradient>
    <linearGradient id="gradient2" x1="0%" y1="0%" x2="100%" y2="0%">
      <stop offset="0%" style="stop-color:#10B981;stop-opacity:1" />
      <stop offset="100%" style="stop-color:#06D6A0;stop-opacity:1" />
    </linearGradient>
  </defs>
</svg>
